<?xml version="1.0" standalone="no"?>
<!DOCTYPE svg PUBLIC "-//W3C//DTD SVG 20010904//EN"
 "http://www.w3.org/TR/2001/REC-SVG-20010904/DTD/svg10.dtd">
<svg version="1.0" xmlns="http://www.w3.org/2000/svg"
 width="1400.000000pt" height="1400.000000pt" viewBox="0 0 1400.000000 1400.000000"
 preserveAspectRatio="xMidYMid meet">
<metadata>
Created by potrace 1.11, written by Peter Selinger 2001-2013
</metadata>
<g transform="translate(0.000000,1400.000000) scale(0.100000,-0.100000)"
fill="#000000" stroke="none">
<path d="M0 7000 l0 -7000 7000 0 7000 0 0 7000 0 7000 -7000 0 -7000 0 0
-7000z m1790 5664 c622 -628 1488 -1167 2875 -1789 223 -100 534 -234 605
-260 19 -8 73 -30 120 -50 124 -53 526 -217 823 -335 142 -56 256 -104 255
-105 -2 -2 -52 1 -113 5 -287 23 -785 7 -1105 -35 -768 -100 -1475 -375 -2080
-808 -540 -388 -990 -865 -1410 -1497 -89 -134 -250 -398 -277 -455 -9 -19
-21 -35 -27 -35 -6 0 -54 21 -106 47 -81 40 -109 62 -190 143 -129 129 -188
239 -239 445 -42 167 -58 414 -42 650 30 427 106 868 307 1765 179 800 205
915 269 1215 88 415 225 1135 225 1185 0 21 19 6 110 -86z m11520 -838 c0 -2
-23 -58 -51 -123 -201 -469 -350 -1068 -429 -1718 -11 -93 -22 -188 -25 -210
-9 -71 -24 -255 -39 -460 -36 -485 -41 -689 -41 -1672 0 -540 -1 -980 -2 -979
-2 2 -21 68 -43 147 -161 586 -422 1134 -748 1567 -551 733 -1341 1256 -2335
1546 -356 104 -767 186 -1170 232 -39 4 -61 12 -65 22 -9 24 17 205 38 267 80
232 272 417 580 556 403 183 890 291 2110 469 1058 154 1576 238 1980 319 186
38 240 46 240 37z m-5595 -1991 c1768 -113 3010 -691 3837 -1786 131 -173 284
-427 394 -654 284 -586 447 -1230 506 -2000 17 -218 17 -808 0 -980 -38 -388
-94 -672 -187 -950 -379 -1136 -1304 -1810 -2908 -2121 -672 -129 -1409 -188
-2382 -188 -548 0 -740 7 -1150 40 -2149 174 -3427 865 -3965 2144 -249 592
-352 1367 -289 2195 69 927 372 1775 867 2429 541 715 1316 1240 2280 1545
570 180 1153 283 1842 326 292 18 878 18 1155 0z"/>
</g>
</svg>
